<svg xmlns="http://www.w3.org/2000/svg" viewBox="0 0 200 165.04"><defs><style>.cls-1{fill:#939598;}.cls-2{fill:#d1d3d4;}.cls-3{fill:#b3b5b8;}.cls-4{fill:#00a79d;}.cls-5{fill:#230871;}.cls-6{fill:none;stroke:#231f20;stroke-miterlimit:10;stroke-width:0.41px;}.cls-7{fill:#2e2e89;}.cls-8{fill:#240f45;}.cls-9{fill:#2d3494;}.cls-10{fill:#616264;}</style></defs><title>BYDesign_Logo</title><g id="Layer_1" data-name="Layer 1"><polyline class="cls-1" points="174.68 76.47 174.67 34.03 74.16 7.04 74.16 49.62 174.68 76.47"/><polyline class="cls-2" points="125.44 89.7 150.94 82.97 42.93 54.13 17.84 60.96 125.44 89.7"/><polyline class="cls-2" points="149.24 83.29 174.68 76.46 66.66 47.62 41.58 54.45 149.18 83.2"/><polyline class="cls-1" points="135.36 160.33 113.1 154.41 113.1 112.21 135.34 106.25"/><polygon class="cls-3" points="53.79 47.09 53.91 70.53 28.45 77.3 28.45 53.88 53.79 47.09"/><polygon class="cls-3" points="53.79 94.56 53.91 124.26 28.45 131.08 28.45 101.35 53.79 94.56"/><polygon class="cls-2" points="68.67 141.87 28.45 131.09 53.91 124.26 68.68 128.24 68.67 141.87"/><polygon class="cls-2" points="68.67 88.14 28.45 77.3 53.91 70.53 68.68 74.51 68.67 88.14"/><path class="cls-4" d="M100,73.28,85.34,50.11,0,27.24V142.71L83.33,165,100,150.26V115.72l-8.66-12.19L100,96.47ZM68.67,141.86,28.45,131.09V104l40.22,10.77Zm0-53.78L28.45,77.3V54.11L68.67,64.88Z"/><polygon class="cls-5" points="100 73.28 100 96.47 100 101.28 91.34 103.53 100 115.72 135.34 106.25 135.36 160.33 164.67 152.34 164.67 98.39 200 88.92 200 27.24 174.67 34.03 174.67 76.46 125.33 89.69 125.33 66.49 100 73.28"/><path class="cls-6" d="M100,73.28"/><polygon class="cls-2" points="200 27.24 100 0 74.16 7.04 174.67 34.03 200 27.24"/><polygon class="cls-7" points="85.34 50.11 100 73.28 125.33 66.49 110.84 43.37 85.34 50.11"/><polyline class="cls-2" points="85.34 50.11 110.84 43.37 25.09 20.41 0 27.24 85.34 50.11"/><polygon class="cls-8" points="125.33 89.69 99.98 96.48 91.35 103.55 116.67 96.81 125.33 89.69"/><polygon class="cls-3" points="125.34 108.93 125.4 143.54 100 150.26 100 115.72 125.34 108.93"/><polygon class="cls-7" points="125.34 108.93 99.99 115.71 91.33 103.56 116.65 96.82 125.34 108.93"/><polygon class="cls-9" points="116.67 96.81 125.33 89.69 125.34 108.93 116.67 96.81"/><polygon class="cls-10" points="125.4 143.54 100 150.26 83.38 165.04 108.7 158.3 125.4 143.54"/></g></svg>